<svg xmlns="http://www.w3.org/2000/svg" version="1.1" xmlns:xlink="http://www.w3.org/1999/xlink" xmlns:svgjs="http://svgjs.dev/svgjs" width="1500" height="1500" viewBox="0 0 1500 1500"><rect width="1500" height="1500" fill="#ffffff"></rect><g transform="matrix(0.6666666666666666,0,0,0.6666666666666666,249.78425655976667,249.78425655976673)"><svg viewBox="0 0 343 343" data-background-color="#f0f2ca" preserveAspectRatio="xMidYMid meet" height="1500" width="1500" xmlns="http://www.w3.org/2000/svg" xmlns:xlink="http://www.w3.org/1999/xlink"><g id="tight-bounds" transform="matrix(1,0,0,1,0.0740000000000407,0.07400000000001228)"><svg viewBox="0 0 342.85155851775386 342.85155851775386" height="342.85155851775386" width="342.85155851775386"><g><svg></svg></g><g><svg viewBox="0 0 342.85155851775386 342.85155851775386" height="342.85155851775386" width="342.85155851775386"><g><path d="M0 171.426c0-94.676 76.75-171.426 171.426-171.426 94.676 0 171.426 76.75 171.426 171.426 0 94.676-76.75 171.426-171.426 171.426-94.676 0-171.426-76.75-171.426-171.426zM171.426 340.929c93.614 0 169.503-75.889 169.503-169.503 0-93.614-75.889-169.503-169.503-169.504-93.614 0-169.503 75.889-169.504 169.504 0 93.614 75.889 169.503 169.504 169.503z" data-fill-palette-color="tertiary" fill="#000000" stroke="transparent"></path><ellipse rx="164.56874808852186" ry="164.56874808852186" cx="171.42577925887693" cy="171.42577925887693" fill="#000000" stroke="transparent" stroke-width="0" fill-opacity="1" data-fill-palette-color="tertiary"></ellipse></g><g transform="matrix(1,0,0,1,64.84655864529837,128.79328101136883)"><svg viewBox="0 0 213.1584412271571 85.26499649501616" height="85.26499649501616" width="213.1584412271571"><g><svg viewBox="0 0 213.1584412271571 85.26499649501616" height="85.26499649501616" width="213.1584412271571"><g><svg viewBox="0 0 213.1584412271571 85.26499649501616" height="85.26499649501616" width="213.1584412271571"><g transform="matrix(1,0,0,1,0,63.94915237230046)"><svg viewBox="0 0 213.1584412271571 21.31584412271571" height="21.31584412271571" width="213.1584412271571"><g id="textblocktransform"><svg viewBox="0 0 213.1584412271571 21.31584412271571" height="21.31584412271571" width="213.1584412271571" id="textblock"><g><svg viewBox="0 0 213.1584412271571 21.31584412271571" height="21.31584412271571" width="213.1584412271571"><g transform="matrix(1,0,0,1,0,0)"><svg width="213.1584412271571" viewBox="4.75 -29.5 299.97 30" height="21.31584412271571" data-palette-color="#f0f2ca"><path d="M16.95-14.55L16.95-14.55 23.75 0 22.1 0 15.1-15Q15.2-15.05 15.98-15.43 16.75-15.8 17.05-15.98 17.35-16.15 18.05-16.6 18.75-17.05 19.1-17.48 19.45-17.9 19.88-18.48 20.3-19.05 20.5-19.78 20.7-20.5 20.7-21.35L20.7-21.35Q20.7-24.5 17.7-26 14.7-27.5 10.25-27.5L10.25-27.5 6.25-27.5 6.25 0 4.75 0 4.75-29 10.25-29Q16.15-29 19.18-26.95 22.2-24.9 22.2-21.35L22.2-21.35Q22.2-19.05 20.65-17.28 19.1-15.5 16.95-14.55ZM48.85-3.95L49.95-2.95Q47.2 0.5 40.95 0.5 34.7 0.5 32-3.05 29.3-6.6 29.3-14.5 29.3-22.4 32-25.95 34.7-29.5 40.95-29.5L40.95-29.5Q48.2-29.5 50.8-24.75L50.8-24.75 38.55-14.5 36.2-14.5 48.85-25.05Q46.65-28 40.95-28L40.95-28Q38.45-28 36.75-27.48 35.05-26.95 33.62-25.53 32.2-24.1 31.5-21.38 30.8-18.65 30.8-14.5 30.8-10.35 31.5-7.63 32.2-4.9 33.62-3.48 35.05-2.05 36.75-1.53 38.45-1 40.95-1L40.95-1Q46.65-1 48.85-3.95L48.85-3.95ZM59.4-3.05Q56.7-6.6 56.7-14.5 56.7-22.4 59.4-25.95 62.1-29.5 68.35-29.5 74.6-29.5 77.35-26.05L77.35-26.05 76.25-25.05Q74.05-28 68.35-28L68.35-28Q65.85-28 64.15-27.48 62.45-26.95 61.02-25.53 59.6-24.1 58.9-21.38 58.2-18.65 58.2-14.5 58.2-10.35 58.9-7.63 59.6-4.9 61.02-3.48 62.45-2.05 64.15-1.53 65.85-1 68.35-1L68.35-1Q74.05-1 76.25-3.95L76.25-3.95 77.35-2.95Q74.6 0.5 68.35 0.5 62.1 0.5 59.4-3.05ZM86.29-1.5L101.49-1.5 101.49 0 84.79 0 84.79-29 86.29-29 86.29-1.5ZM109.89 0L109.89-1.5 126.19-1.5 115.94-25.65 105.04 0 103.44 0 115.94-29.5 128.44 0 109.89 0ZM134.14 0L134.14-29 135.64-29 135.64 0 134.14 0ZM149.84-0.05L149.84-1.5 169.14-1.5 169.14-26.9 157.89-15.65 146.64-26.9 146.64 0 145.14-0.05 145.14-29 146.64-29 157.89-17.75 169.14-29 170.64-29 170.64 0 149.84-0.05ZM182.78 0L182.78-1.5 199.08-1.5 188.83-25.65 177.93 0 176.33 0 188.83-29.5 201.33 0 182.78 0ZM219.23-14.55L219.23-14.55 226.03 0 224.38 0 217.38-15Q217.48-15.05 218.26-15.43 219.03-15.8 219.33-15.98 219.63-16.15 220.33-16.6 221.03-17.05 221.38-17.48 221.73-17.9 222.16-18.48 222.58-19.05 222.78-19.78 222.98-20.5 222.98-21.35L222.98-21.35Q222.98-24.5 219.98-26 216.98-27.5 212.53-27.5L212.53-27.5 208.53-27.5 208.53 0 207.03 0 207.03-29 212.53-29Q218.43-29 221.46-26.95 224.48-24.9 224.48-21.35L224.48-21.35Q224.48-19.05 222.93-17.28 221.38-15.5 219.23-14.55ZM234.33 0L232.83 0 232.83-29 234.33-29 234.33 0ZM253.48 0L251.33 0 235.93-15.3 249.73-29 251.88-29 238.08-15.3 253.48 0ZM276.88-3.95L277.98-2.95Q275.23 0.5 268.98 0.5 262.73 0.5 260.03-3.05 257.33-6.6 257.33-14.5 257.33-22.4 260.03-25.95 262.73-29.5 268.98-29.5L268.98-29.5Q276.23-29.5 278.83-24.75L278.83-24.75 266.58-14.5 264.23-14.5 276.88-25.05Q274.68-28 268.98-28L268.98-28Q266.48-28 264.78-27.48 263.08-26.95 261.65-25.53 260.23-24.1 259.53-21.38 258.83-18.65 258.83-14.5 258.83-10.35 259.53-7.63 260.23-4.9 261.65-3.48 263.08-2.05 264.78-1.53 266.48-1 268.98-1L268.98-1Q274.68-1 276.88-3.95L276.88-3.95ZM282.22-29L304.72-29 304.72-27.5 294.22-27.5 294.22 0 292.72 0 292.72-27.5 282.22-27.5 282.22-29Z" opacity="1" transform="matrix(1,0,0,1,0,0)" fill="#ffffff" class="wordmark-text-0" data-fill-palette-color="quaternary" id="text-0"></path></svg></g></svg></g></svg></g></svg></g><g transform="matrix(1,0,0,1,76.1237580238673,0)"><svg viewBox="0 0 60.91092517942252 58.916993155186226" height="58.916993155186226" width="60.91092517942252"><g><svg xmlns="http://www.w3.org/2000/svg" xmlns:xlink="http://www.w3.org/1999/xlink" version="1.1" x="0" y="0" viewBox="4.494471529247901 4.567 90.30205694150419 87.346" enable-background="new 0 0 100 100" xml:space="preserve" height="58.916993155186226" width="60.91092517942252" class="icon-icon-0" data-fill-palette-color="quaternary" id="icon-0"><g fill="#f0f2ca" data-fill-palette-color="quaternary"><path d="M77.468 14.441c-0.32 0.043-0.648 0.093-0.977 0.144-0.121 0.019-0.238 0.034-0.359 0.053-0.382 0.061-0.774 0.129-1.17 0.2-0.076 0.014-0.148 0.025-0.225 0.039-0.477 0.087-0.965 0.18-1.465 0.281-0.005 0.001-0.011 0.002-0.016 0.003-0.002 0-0.005 0.001-0.007 0.001l0 0c-0.002 0-0.004 0.001-0.006 0.001-0.114 0.023-0.229 0.049-0.344 0.074l-0.044 0.01-0.37 0.08c0 0 0 0-0.002 0.001-0.014 0.003-0.028 0.007-0.042 0.009-0.621 0.132-1.254 0.274-1.9 0.428-0.017 0.004-0.034 0.008-0.05 0.012-0.65 0.155-1.314 0.321-1.994 0.499-0.018 0.005-0.037 0.01-0.055 0.015-0.681 0.179-1.377 0.369-2.091 0.571-0.018 0.005-0.036 0.01-0.054 0.015-0.721 0.205-1.46 0.422-2.221 0.653-2.921 0.889-6.033 1.96-9.249 3.185-5.923 2.255-11.854 4.871-17.628 7.777-1.916 0.964-3.829 1.968-5.686 2.985l-0.309 0.169-2.642-8.557L15.745 48.294l-1.528 3.005 9.645-3.005 20.569-6.408-7.404-3.741 0.393-0.276c6.238-4.375 13.053-8.535 19.708-12.029 0.717-0.377 1.429-0.744 2.134-1.101 0.706-0.357 1.405-0.704 2.097-1.041 1.459-0.71 2.886-1.374 4.269-1.984 3.2-1.409 5.979-2.496 8.499-3.324 0.548-0.182 1.094-0.348 1.639-0.514 0.003-0.001 0.006-0.002 0.008-0.003 0.103-0.031 0.207-0.066 0.31-0.097 0.06-0.018 0.121-0.039 0.182-0.057l0.15-0.044c0.001 0.001 0.001 0.001 0.002 0.002 0 0 0.001 0 0.002-0.001 0.41-0.12 0.819-0.236 1.223-0.343 0.082-0.022 0.162-0.04 0.244-0.062 0.352-0.092 0.702-0.18 1.049-0.262 0.152-0.036 0.301-0.068 0.452-0.102 0.274-0.062 0.547-0.123 0.817-0.178 0.163-0.034 0.324-0.064 0.486-0.096 0.149-0.029 0.296-0.055 0.443-0.082 0.115-0.021 0.232-0.044 0.347-0.064 0.068-0.012 0.138-0.027 0.206-0.038l0.143-0.024c0.002-0.002 0.002-0.002 0.002-0.002l0.11-0.02c0.131-0.025 0.263-0.049 0.393-0.069 2.401-0.36 4.51-0.38 6.26-0.057 1.548 0.321 2.777 0.905 3.656 1.736 1.527 1.391 1.911 3.359 2.004 4.408 0.172 1.526 0.03 2.916-0.115 3.963 0.321-1.159 0.622-2.448 0.652-3.997 0.015-0.299-0.01-0.604-0.035-0.926l-0.057-0.524c-0.058-0.362-0.117-0.735-0.235-1.099-0.281-0.98-0.765-1.877-1.403-2.604-0.657-0.752-1.566-1.406-2.628-1.89-0.606-0.276-1.274-0.505-2.043-0.697l-0.193-0.049c-0.068-0.017-0.134-0.031-0.2-0.046l-0.139-0.031c-1.435-0.329-3.023-0.489-4.851-0.489-0.288 0-0.575 0.004-0.864 0.012-0.848 0.023-1.743 0.078-2.668 0.165 0 0 0 0-0.019-0.003l-0.386 0.042-0.259 0.028c-0.04 0.004-0.082 0.01-0.121 0.015-0.001 0-0.001-0.001-0.002-0.001-0.001 0-0.002 0-0.002 0-0.248 0.028-0.501 0.062-0.752 0.093C77.777 14.403 77.625 14.42 77.468 14.441z" fill="#ffffff" data-fill-palette-color="quaternary"></path></g><g fill="#f0f2ca" data-fill-palette-color="quaternary"><path d="M21.824 82.038c0.32-0.043 0.648-0.093 0.977-0.144 0.121-0.019 0.238-0.034 0.36-0.053 0.382-0.061 0.774-0.129 1.17-0.2 0.076-0.014 0.148-0.025 0.225-0.039 0.477-0.087 0.965-0.18 1.465-0.281 0.005-0.001 0.011-0.002 0.016-0.003 0.002 0 0.005-0.001 0.007-0.001l0 0c0.002 0 0.004-0.001 0.006-0.001 0.115-0.023 0.229-0.049 0.344-0.074l0.044-0.01 0.37-0.08c0 0 0 0 0.002-0.001 0.014-0.003 0.028-0.007 0.042-0.009 0.621-0.132 1.254-0.274 1.9-0.428 0.017-0.004 0.034-0.008 0.05-0.012 0.65-0.155 1.314-0.321 1.994-0.499 0.018-0.005 0.037-0.01 0.055-0.015 0.681-0.179 1.377-0.369 2.091-0.571 0.018-0.005 0.036-0.01 0.054-0.015 0.721-0.205 1.46-0.422 2.221-0.653 2.921-0.889 6.033-1.96 9.249-3.185 5.923-2.255 11.854-4.871 17.628-7.777 1.916-0.964 3.829-1.968 5.686-2.985l0.309-0.169 2.642 8.557 12.815-25.204 1.528-3.005-9.645 3.005-20.569 6.408 7.404 3.741-0.393 0.276c-6.238 4.375-13.053 8.535-19.708 12.029-0.717 0.377-1.429 0.744-2.134 1.101-0.706 0.357-1.405 0.704-2.097 1.041-1.459 0.71-2.886 1.374-4.269 1.984-3.2 1.409-5.979 2.496-8.499 3.324-0.548 0.182-1.094 0.348-1.639 0.514-0.003 0.001-0.006 0.002-0.009 0.003-0.103 0.031-0.207 0.066-0.31 0.097-0.06 0.018-0.121 0.039-0.182 0.057l-0.15 0.044c-0.001-0.001-0.001-0.001-0.001-0.001-0.001 0-0.002 0-0.003 0-0.41 0.12-0.819 0.236-1.223 0.343-0.082 0.022-0.162 0.04-0.244 0.062-0.352 0.092-0.702 0.18-1.048 0.262-0.152 0.036-0.301 0.068-0.452 0.102-0.274 0.062-0.547 0.123-0.817 0.178-0.163 0.034-0.324 0.064-0.486 0.096-0.149 0.029-0.296 0.055-0.443 0.082-0.115 0.021-0.232 0.044-0.347 0.064-0.068 0.012-0.138 0.027-0.206 0.038l-0.143 0.024c-0.002 0.002-0.002 0.002-0.002 0.002l-0.11 0.02c-0.131 0.025-0.263 0.049-0.393 0.069-2.401 0.36-4.51 0.38-6.26 0.057-1.548-0.321-2.777-0.905-3.656-1.736-1.527-1.391-1.911-3.359-2.004-4.408-0.172-1.526-0.03-2.916 0.115-3.963-0.321 1.159-0.622 2.448-0.652 3.997-0.015 0.299 0.01 0.604 0.035 0.926l0.057 0.524c0.058 0.362 0.117 0.735 0.235 1.099 0.281 0.98 0.765 1.877 1.403 2.604 0.657 0.752 1.566 1.406 2.628 1.89 0.606 0.276 1.274 0.505 2.043 0.697l0.193 0.049c0.068 0.017 0.134 0.031 0.2 0.046l0.139 0.031c1.435 0.329 3.023 0.489 4.851 0.489 0.288 0 0.575-0.004 0.864-0.012 0.848-0.023 1.743-0.078 2.668-0.165 0 0 0 0 0.019 0.003l0.386-0.042 0.259-0.028c0.04-0.004 0.082-0.01 0.122-0.015 0.001 0 0.001 0.001 0.001 0.001 0.002 0 0.003 0 0.004 0 0.247-0.027 0.5-0.062 0.751-0.093C21.515 82.076 21.667 82.06 21.824 82.038z" fill="#ffffff" data-fill-palette-color="quaternary"></path></g><path d="M79.462 18.504l-0.272 0.066 0.026 0.02-0.28 0.07c0.026 0.026 0.053 0.052 0.079 0.078 0.215 0.213 0.423 0.432 0.631 0.651l0.339 0.356c0.188 0.196 0.376 0.392 0.558 0.593 0.21 0.232 0.413 0.47 0.617 0.708l0.288 0.336c0.179 0.208 0.357 0.416 0.529 0.627 0.188 0.23 0.371 0.469 0.554 0.707l0.289 0.375c0.167 0.216 0.334 0.432 0.496 0.652 0.172 0.236 0.336 0.475 0.499 0.713l0.308 0.445c0.147 0.213 0.296 0.426 0.438 0.644 0.161 0.247 0.314 0.497 0.467 0.748l0.276 0.448c0.136 0.219 0.271 0.438 0.401 0.662 0.154 0.265 0.298 0.531 0.442 0.797l0.257 0.472c0.118 0.215 0.236 0.43 0.349 0.648 0.136 0.265 0.264 0.534 0.392 0.804l0.235 0.489c0.107 0.222 0.215 0.444 0.315 0.668 0.125 0.277 0.241 0.56 0.357 0.842l0.213 0.51c0.093 0.218 0.185 0.437 0.271 0.658 0.103 0.266 0.197 0.534 0.292 0.802l0.203 0.57c0.082 0.225 0.163 0.451 0.238 0.678 0.094 0.283 0.178 0.57 0.262 0.858l0.177 0.589c0.064 0.213 0.13 0.426 0.188 0.641 0.081 0.302 0.153 0.604 0.225 0.907l0.139 0.574c0.054 0.214 0.107 0.428 0.153 0.644 0.068 0.316 0.126 0.634 0.184 0.953l0.112 0.597c0.038 0.199 0.077 0.398 0.11 0.6 0.053 0.332 0.095 0.665 0.137 0.997l0.085 0.64c0.025 0.18 0.051 0.36 0.07 0.541 0.045 0.423 0.075 0.845 0.104 1.268l0.037 0.481c0.014 0.15 0.026 0.3 0.035 0.451 0.038 0.716 0.057 1.437 0.058 2.16-0.031 22.965-18.737 41.646-41.699 41.646-0.528 0-1.055-0.01-1.58-0.029l-0.72-0.04c-0.285-0.014-0.57-0.027-0.854-0.049-0.155-0.012-0.308-0.027-0.461-0.042l-0.425-0.04c-0.225-0.02-0.451-0.04-0.676-0.064-0.165-0.019-0.326-0.041-0.487-0.063l-0.491-0.065c-0.192-0.024-0.385-0.049-0.576-0.077-0.161-0.024-0.32-0.053-0.479-0.081l-0.494-0.084c-0.189-0.031-0.379-0.063-0.567-0.099-0.164-0.031-0.325-0.065-0.487-0.101l-0.485-0.102c-0.185-0.038-0.371-0.076-0.555-0.118-0.167-0.038-0.331-0.08-0.496-0.122l-0.452-0.113c-0.188-0.046-0.377-0.093-0.565-0.143-0.174-0.047-0.348-0.099-0.521-0.149l-0.455-0.132c-0.175-0.05-0.349-0.1-0.522-0.154-0.177-0.055-0.354-0.114-0.531-0.175l-0.43-0.143c-0.172-0.056-0.343-0.111-0.514-0.171-0.162-0.058-0.32-0.118-0.479-0.178l-0.432-0.162c-0.184-0.067-0.369-0.136-0.551-0.208-0.173-0.068-0.344-0.141-0.514-0.213L33.444 86.6c-0.175-0.072-0.351-0.145-0.524-0.221-0.155-0.068-0.309-0.141-0.462-0.212l-0.415-0.192c-0.181-0.082-0.362-0.165-0.541-0.251-0.151-0.074-0.296-0.149-0.442-0.225l-0.413-0.21c-0.182-0.091-0.364-0.183-0.544-0.279-0.148-0.079-0.295-0.162-0.442-0.245l-0.358-0.199c-0.19-0.104-0.38-0.21-0.569-0.319l-0.854-0.517c-0.166-0.101-0.332-0.201-0.496-0.305l-0.782-0.515c-0.039-0.025-0.078-0.051-0.116-0.076-0.053 0.011-0.106 0.022-0.16 0.033-0.481 0.097-0.953 0.187-1.417 0.271l-0.417 0.073c-0.276 0.049-0.551 0.097-0.82 0.141 7.494 5.536 16.629 8.561 25.973 8.561 24.052 0 43.667-19.568 43.725-43.621v-0.104c-0.027-11.269-4.315-21.926-12.086-30.068C80.7 18.229 80.089 18.358 79.462 18.504z" fill="#ffffff" data-fill-palette-color="quaternary"></path><path d="M19.624 77.067l-0.309-0.324c-0.191-0.199-0.381-0.398-0.565-0.603-0.202-0.222-0.397-0.451-0.593-0.68l-0.305-0.355c-0.181-0.21-0.361-0.42-0.536-0.635-0.181-0.222-0.354-0.447-0.528-0.674l-0.341-0.442c-0.159-0.205-0.317-0.41-0.47-0.619-0.178-0.245-0.348-0.491-0.517-0.738l-0.281-0.406c-0.151-0.218-0.303-0.436-0.447-0.657-0.161-0.246-0.313-0.496-0.466-0.746l-0.273-0.443c-0.138-0.222-0.275-0.443-0.406-0.67-0.147-0.253-0.288-0.512-0.427-0.771l-0.261-0.479c-0.122-0.22-0.243-0.44-0.357-0.664-0.136-0.264-0.263-0.532-0.391-0.801l-0.234-0.487c-0.109-0.225-0.217-0.448-0.319-0.676-0.12-0.267-0.232-0.539-0.345-0.813l-0.222-0.532c-0.094-0.221-0.187-0.44-0.273-0.664-0.109-0.281-0.21-0.566-0.31-0.853l-0.189-0.529c-0.081-0.222-0.161-0.443-0.235-0.667-0.093-0.284-0.178-0.571-0.261-0.857L9.59 59.707c-0.067-0.218-0.133-0.436-0.193-0.656-0.08-0.297-0.151-0.595-0.221-0.892l-0.144-0.595c-0.053-0.212-0.106-0.424-0.152-0.638-0.067-0.309-0.123-0.62-0.18-0.932l-0.112-0.6c-0.04-0.207-0.081-0.414-0.114-0.622-0.055-0.338-0.098-0.68-0.141-1.022L8.256 53.17c-0.027-0.189-0.054-0.38-0.074-0.571-0.044-0.416-0.074-0.834-0.104-1.252L8.04 50.859c-0.014-0.153-0.027-0.307-0.035-0.46-0.039-0.717-0.058-1.437-0.059-2.16 0.032-22.965 18.738-41.646 41.7-41.646 0.528 0 1.055 0.01 1.582 0.03l0.711 0.039c0.287 0.014 0.575 0.029 0.862 0.05 0.142 0.01 0.283 0.024 0.426 0.039l0.489 0.045c0.216 0.019 0.432 0.038 0.646 0.063 0.163 0.019 0.325 0.041 0.486 0.063l0.504 0.066c0.188 0.024 0.376 0.048 0.563 0.076 0.168 0.025 0.334 0.055 0.5 0.084l0.474 0.081c0.189 0.031 0.379 0.063 0.567 0.098 0.169 0.032 0.337 0.068 0.505 0.104l0.472 0.099c0.184 0.038 0.368 0.075 0.55 0.117 0.176 0.041 0.349 0.084 0.521 0.129l0.469 0.117c0.175 0.043 0.349 0.085 0.522 0.132 0.175 0.047 0.348 0.098 0.521 0.149l0.428 0.125c0.183 0.052 0.365 0.104 0.547 0.161 0.168 0.052 0.335 0.108 0.503 0.165l0.452 0.15c0.175 0.057 0.35 0.115 0.523 0.176 0.163 0.057 0.322 0.118 0.482 0.179l0.422 0.158c0.186 0.068 0.372 0.137 0.556 0.209 0.167 0.066 0.331 0.136 0.496 0.206l0.424 0.177c0.174 0.072 0.349 0.144 0.521 0.219 0.153 0.067 0.304 0.138 0.454 0.208l0.449 0.208c0.173 0.079 0.346 0.158 0.517 0.242 0.155 0.075 0.308 0.154 0.461 0.233l0.406 0.207c0.178 0.089 0.355 0.179 0.531 0.273 0.146 0.078 0.291 0.159 0.437 0.242l0.379 0.211c0.187 0.103 0.373 0.206 0.557 0.313 0.149 0.087 0.299 0.179 0.448 0.271l0.352 0.214c0.183 0.11 0.365 0.22 0.547 0.334 0.137 0.087 0.271 0.176 0.404 0.266l0.32 0.211c0.058 0.038 0.115 0.076 0.174 0.114 0.053-0.011 0.106-0.022 0.16-0.033 0.48-0.097 0.952-0.188 1.418-0.272l0.415-0.073c0.276-0.048 0.551-0.096 0.819-0.14C68.126 7.592 58.99 4.567 49.646 4.567c-24.052 0-43.667 19.568-43.725 43.621l0 0.149c0.039 11.252 4.326 21.891 12.086 30.022 0.586-0.109 1.197-0.238 1.822-0.384l0.374-0.092c0.059-0.014 0.118-0.028 0.176-0.042-0.034-0.033-0.067-0.066-0.101-0.1C20.055 77.521 19.84 77.294 19.624 77.067z" fill="#ffffff" data-fill-palette-color="quaternary"></path></svg></g></svg></g><g></g></svg></g></svg></g></svg></g></svg></g><defs></defs></svg><rect width="342.85155851775386" height="342.85155851775386" fill="none" stroke="none" visibility="hidden"></rect></g></svg></g></svg>